<svg width="339" height="136" viewBox="0 0 339 136" fill="none" xmlns="http://www.w3.org/2000/svg">
<rect x="99.6507" y="41.5029" width="249.132" height="205" rx="7" transform="rotate(19 99.6507 41.5029)" fill="white"/>
<rect x="99.6507" y="41.5029" width="249.132" height="205" rx="7" transform="rotate(19 99.6507 41.5029)" stroke="#B3EBFF" stroke-width="2"/>
<rect x="85.9355" y="40.0806" width="249.132" height="205" rx="7" transform="rotate(13 85.9355 40.0806)" fill="white"/>
<rect x="85.9355" y="40.0806" width="249.132" height="205" rx="7" transform="rotate(13 85.9355 40.0806)" stroke="#80DEFF" stroke-width="2"/>
<rect x="65.8614" y="37.6219" width="249.132" height="205" rx="7" transform="rotate(7 65.8614 37.6219)" fill="white"/>
<rect x="65.8614" y="37.6219" width="249.132" height="205" rx="7" transform="rotate(7 65.8614 37.6219)" stroke="#05BFFF" stroke-width="2"/>
<rect x="45.0571" y="32.9152" width="249.132" height="205" rx="7" transform="rotate(1 45.0571 32.9152)" fill="white"/>
<rect x="45.0571" y="32.9152" width="249.132" height="205" rx="7" transform="rotate(1 45.0571 32.9152)" stroke="#00AAE6" stroke-width="2"/>
<g filter="url(#filter0_d_1_1869)">
<rect x="20.1758" y="19.2518" width="251.132" height="207" rx="8" transform="rotate(-2 20.1758 19.2518)" fill="url(#paint0_linear_1_1869)" shape-rendering="crispEdges"/>
<rect x="21.2101" y="20.2163" width="249.132" height="205" rx="7" transform="rotate(-2 21.2101 20.2163)" stroke="#1DBF9E" stroke-width="2" shape-rendering="crispEdges"/>
<path d="M47.6743 41.1675L45.0629 41.2586L45.0339 40.4271L51.2181 40.2112L51.2472 41.0427L48.6488 41.1334L48.9328 49.2665L47.9584 49.3005L47.6743 41.1675ZM56.4251 49.1609C53.9566 49.2471 51.7776 47.5671 51.6774 44.6959C51.5776 41.8376 53.6336 39.9968 56.1021 39.9106C58.5576 39.8248 60.75 41.5173 60.8498 44.3756C60.9501 47.2468 58.9066 49.0743 56.4251 49.1609ZM56.3942 48.2775C58.3431 48.2094 59.9306 46.7361 59.8489 44.3975C59.7668 42.046 58.0813 40.713 56.1325 40.781C54.1966 40.8486 52.5947 42.2834 52.6773 44.648C52.759 46.9865 54.4714 48.3446 56.3942 48.2775ZM64.852 39.7351C65.6315 39.7079 66.3529 39.8778 66.8593 40.2243C67.4719 40.6322 67.8194 41.2705 67.8484 42.102C67.8811 43.0374 67.4634 43.7414 66.8023 44.1807C66.281 44.5241 65.5445 44.6669 64.856 44.691L63.6737 44.7323L63.8139 48.7468L62.8395 48.7808L62.5264 39.8163L64.852 39.7351ZM64.9049 43.8568C65.5025 43.8359 65.9406 43.7165 66.2828 43.4574C66.6505 43.1844 66.8698 42.7605 66.8485 42.1499C66.8285 41.5782 66.5797 41.1577 66.1934 40.898C65.834 40.6634 65.3747 40.5493 64.8421 40.5679L63.5299 40.6138L63.6446 43.9008L64.9049 43.8568ZM74.7376 39.3899C75.4131 39.3663 75.9898 39.4892 76.4536 39.7332C77.1562 40.1119 77.5709 40.8129 77.6032 41.7353C77.6281 42.4499 77.4003 43.0041 77.0251 43.4335C76.6619 43.8364 76.1383 44.1149 75.5448 44.2527L78.3506 48.2392L77.1423 48.2814L74.5081 44.3669L73.4558 44.4037L73.5955 48.4052L72.6211 48.4393L72.308 39.4747L74.7376 39.3899ZM74.3747 43.5261C75.0503 43.5025 75.5686 43.4453 75.9874 43.1445C76.4446 42.8294 76.6236 42.3679 76.6041 41.8092C76.5823 41.1856 76.3187 40.7135 75.8554 40.4825C75.4973 40.2869 75.0004 40.2132 74.3898 40.2345L73.3115 40.2722L73.4263 43.5592L74.3747 43.5261ZM79.292 39.2308L84.3199 39.0553L84.3494 39.8997L80.2959 40.0413L80.3993 43.0035L84.219 42.8701L84.2485 43.7146L80.4288 43.848L80.55 47.3169L84.6944 47.1721L84.7239 48.0166L79.605 48.1954L79.292 39.2308ZM93.9258 46.4985C93.3513 47.182 92.31 47.9078 90.6471 47.9659C87.9837 48.0589 86.0609 46.2659 85.9643 43.4986C85.8681 40.7442 87.8036 38.8035 90.363 38.7141C91.974 38.6579 93.024 39.2976 93.6156 39.8493L93.1487 40.6331C92.7278 40.1275 91.6666 39.5402 90.4194 39.5837C88.3147 39.6572 86.8862 41.216 86.9638 43.4377C87.0414 45.6593 88.6141 47.1133 90.6798 47.0412C91.8881 46.999 92.8081 46.5246 93.4081 45.8272L93.9258 46.4985ZM99.2949 47.6639C96.8264 47.7501 94.6475 46.0701 94.5472 43.1989C94.4474 40.3406 96.5034 38.4997 98.9719 38.4135C101.427 38.3278 103.62 40.0203 103.72 42.8785C103.82 45.7498 101.776 47.5772 99.2949 47.6639ZM99.2641 46.7804C101.213 46.7124 102.8 45.2391 102.719 42.9005C102.637 40.5489 100.951 39.2159 99.0023 39.284C97.0665 39.3516 95.4645 40.7864 95.5471 43.1509C95.6288 45.4895 97.3412 46.8476 99.2641 46.7804ZM105.812 38.3047L106.929 38.2657L110.016 45.4554L112.594 38.0679L113.776 38.0266L114.947 46.9612L113.972 46.9952L113.023 39.5488L110.287 47.241L109.832 47.2569L106.634 39.863L106.242 47.2652L105.268 47.2992L105.812 38.3047ZM117.072 37.9115L118.189 37.8725L121.276 45.0622L123.854 37.6747L125.036 37.6334L126.207 46.568L125.232 46.602L124.283 39.1556L121.547 46.8478L121.092 46.8637L117.894 39.4698L117.502 46.872L116.528 46.906L117.072 37.9115ZM127.903 37.5333L132.931 37.3577L132.961 38.2022L128.907 38.3437L129.011 41.3059L132.83 41.1726L132.86 42.017L129.04 42.1504L129.161 45.6193L133.306 45.4746L133.335 46.3191L128.216 46.4978L127.903 37.5333ZM134.938 37.2876L135.952 37.2522L141.705 44.4528L141.632 42.3481L141.447 37.0603L142.409 37.0267L142.722 45.9913L141.786 46.024L135.951 38.7222C135.974 39.3718 136.031 40.6315 136.074 41.8788L136.226 46.2181L135.251 46.2522L134.938 37.2876ZM147.35 36.8542C148.909 36.7998 150.112 37.3561 150.744 37.9324C151.388 38.4953 152.152 39.5352 152.21 41.1852C152.268 42.8352 151.537 43.8884 150.934 44.5078C150.344 45.1137 149.222 45.7643 147.663 45.8187L145.078 45.909L144.764 36.9445L147.35 36.8542ZM147.607 44.9622C148.763 44.9218 149.62 44.5016 150.135 43.9763C150.651 43.464 151.244 42.5718 151.196 41.2076C151.158 40.1163 150.761 39.1676 150.036 38.5425C149.366 37.9675 148.406 37.6758 147.354 37.7126L145.769 37.7679L146.022 45.0175L147.607 44.9622ZM153.868 36.6266L158.895 36.451L158.925 37.2955L154.871 37.4371L154.975 40.3992L158.795 40.2659L158.824 41.1103L155.004 41.2437L155.126 44.7126L159.27 44.5679L159.299 45.4124L154.181 45.5911L153.868 36.6266ZM163.488 36.2906C165.047 36.2362 166.25 36.7925 166.882 37.3689C167.526 37.9317 168.29 38.9717 168.348 40.6217C168.406 42.2717 167.675 43.3248 167.072 43.9442C166.482 44.5502 165.36 45.2007 163.801 45.2552L161.216 45.3455L160.903 36.3809L163.488 36.2906ZM163.745 44.3986C164.901 44.3582 165.758 43.9381 166.273 43.4128C166.789 42.9005 167.382 42.0082 167.334 40.6441C167.296 39.5527 166.899 38.604 166.175 37.9789C165.504 37.404 164.544 37.1123 163.492 37.149L161.907 37.2044L162.16 44.454L163.745 44.3986Z" fill="#0A3254"/>
<path d="M47.5103 67.3872L51.6938 67.2411L52.1983 81.6883L58.4085 81.4714L58.5301 84.9533L48.1364 85.3162L47.5103 67.3872ZM59.1823 78.5566C59.038 74.4251 62.0152 71.7716 66.0688 71.6301C70.1223 71.4885 73.2514 73.9288 73.3956 78.0603C73.5399 82.1918 70.5878 84.8184 66.5343 84.9599C62.4807 85.1015 59.3266 82.6881 59.1823 78.5566ZM66.4154 81.556C68.2343 81.4925 69.2757 80.0253 69.2095 78.1284C69.1432 76.2316 68.002 74.8405 66.1831 74.9041C64.3382 74.9685 63.3228 76.4348 63.389 78.3317C63.4553 80.2285 64.5705 81.6204 66.4154 81.556ZM89.058 81.2856C89.1542 84.0399 88.5089 85.6755 87.3025 86.8883C86.0961 88.1012 84.4111 89.0185 81.4749 89.121C78.5127 89.2245 76.1045 88.0598 75.1984 87.4411L76.8163 84.6009C77.5898 85.1462 79.5694 85.9616 81.2844 85.9017C82.9993 85.8418 83.8378 85.2662 84.2632 84.7831C84.6877 84.274 84.9937 83.3527 84.9538 82.2094L84.9383 81.7677C83.8646 83.054 82.898 83.6861 80.9232 83.755C77.7272 83.8666 74.7927 81.7838 74.6448 77.5484C74.5051 73.5468 77.3382 71.2365 80.4823 71.1267C82.587 71.0532 83.9476 72.0203 84.6011 72.856L84.5721 72.0245L84.544 71.219L88.7014 71.0739L89.058 81.2856ZM82.0078 80.5432C83.8007 80.4806 84.9497 79.1137 84.8889 77.3727C84.8281 75.6318 83.6358 74.2686 81.791 74.333C79.9461 74.3974 78.8258 75.8414 78.8866 77.5823C78.9474 79.3233 80.2149 80.6058 82.0078 80.5432ZM91.145 67.3463C91.1005 66.0731 92.0311 65.156 93.4342 65.107C94.8374 65.058 95.8296 65.9079 95.8741 67.1812C95.9195 68.4804 94.988 69.3714 93.5849 69.4204C92.1817 69.4694 91.1904 68.6455 91.145 67.3463ZM91.5579 70.9741L95.7153 70.8289L96.1627 83.6391L92.0052 83.7843L91.5579 70.9741ZM99.3053 79.3668C100.376 80.214 102.114 80.8297 103.153 80.7934C104.193 80.7571 104.911 80.4719 104.882 79.6404C104.853 78.8089 102.968 78.4585 102.495 78.3189L101.787 78.1615C100.185 77.7491 98.4414 76.9775 98.3552 74.509C98.2681 72.0146 100.397 70.4053 103.074 70.3118C105.75 70.2183 107.291 71.1531 108.04 71.7253L106.774 74.215C106.027 73.6688 104.548 73.044 103.508 73.0803C102.521 73.1148 101.984 73.3937 102.008 74.0693C102.032 74.7449 103.03 75.0222 103.922 75.2512L105.315 75.6448C107.995 76.4098 108.542 77.8996 108.589 79.2508C108.678 81.7972 106.684 83.5579 103.306 83.6758C101.383 83.743 99.3356 83.2161 97.8324 81.8898L99.3053 79.3668ZM118.289 82.7364C117.98 82.8252 116.848 83.2029 115.341 83.2556C113.86 83.3073 112.857 82.9 112.181 82.1692C111.505 81.4383 111.208 80.382 111.14 78.4332L110.967 73.4703L109.148 73.5338L109.038 70.3897L110.857 70.3262L110.736 66.8443L114.919 66.6982L115.041 70.1801L117.873 70.0812L117.983 73.2253L115.151 73.3242L115.311 77.9234C115.349 79.0147 115.514 79.2691 115.73 79.4957C115.919 79.6972 116.183 79.7921 116.729 79.773C117.378 79.7503 117.968 79.4956 117.968 79.4956L118.289 82.7364ZM119.185 66.3671C119.14 65.0939 120.071 64.1769 121.474 64.1279C122.877 64.0789 123.869 64.9288 123.914 66.202C123.959 67.5012 123.028 68.3923 121.624 68.4413C120.221 68.4903 119.23 67.6663 119.185 66.3671ZM119.597 69.9949L123.755 69.8498L124.202 82.66L120.045 82.8051L119.597 69.9949ZM137.84 80.9349C137.714 81.0434 136.413 82.5197 133.009 82.6386C129.501 82.7611 126.169 80.484 126.02 76.2226C125.871 71.9352 129.087 69.4294 132.595 69.3069C135.869 69.1926 137.397 70.492 137.397 70.492L136.598 73.6679C136.224 73.3948 135.051 72.5772 133.258 72.6398C131.491 72.7015 130.13 73.9718 130.201 75.9985C130.272 78.0253 131.59 79.2541 133.538 79.186C135.487 79.1179 136.743 77.8253 136.743 77.8253L137.84 80.9349ZM138.723 65.6848C138.679 64.4116 139.61 63.4946 141.013 63.4456C142.416 63.3966 143.408 64.2465 143.453 65.5197C143.498 66.8189 142.566 67.7099 141.163 67.7589C139.76 67.8079 138.769 66.984 138.723 65.6848ZM139.136 69.3126L143.294 69.1674L143.741 81.9776L139.584 82.1228L139.136 69.3126ZM153.919 80.2694C153.393 80.8341 152.392 81.9617 150.313 82.0343C148.052 82.1133 145.619 80.9755 145.519 78.1172C145.419 75.259 148.01 74.2059 150.371 74.0194L153.589 73.777L153.579 73.4911C153.532 72.14 152.546 71.472 150.883 71.53C149.246 71.5872 147.634 72.3719 146.999 72.8104L145.813 70.1461C146.886 69.5623 148.86 68.7389 151.251 68.6554C153.641 68.572 155.037 69.0695 156.083 69.9696C157.103 70.8705 157.693 72.0987 157.768 74.2554L158.02 81.479L154.045 81.6178L153.919 80.2694ZM151.644 76.1863C150.372 76.2827 149.638 76.8547 149.671 77.8161C149.706 78.8035 150.532 79.373 151.675 79.3331C152.793 79.2941 153.521 78.5402 153.765 78.0894L153.692 75.9847L151.644 76.1863ZM160.146 68.579L164.303 68.4338L164.32 70.4104C165.024 68.9549 166.4 68.1264 168.037 68.0693C171.752 67.9395 172.797 70.2965 172.905 73.3886L173.169 80.95L169.012 81.0952L168.779 74.4172C168.72 72.7283 168.415 71.4641 166.7 71.524C164.908 71.5866 164.465 73.059 164.529 74.9038L164.75 81.244L160.593 81.3892L160.146 68.579Z" fill="#004987"/>
<path d="M52.2851 112.404C50.5017 112.394 49.1644 111.234 48.5381 110.319L49.4248 109.406C49.9375 110.163 51.0507 111.096 52.2617 111.216L52.1268 106.322L50.9579 105.858C49.5526 105.331 48.819 104.438 48.7656 102.909C48.6997 101.02 50.227 99.8861 51.9477 99.646L51.9192 98.3141L52.8366 98.2821L52.8831 99.6133C54.687 99.6944 55.6999 100.848 55.9239 101.074L55.1638 102.001C54.6593 101.478 53.9543 100.891 52.906 100.783L53.0264 105.264L53.6468 105.494C55.0713 106.057 56.3954 106.839 56.4614 108.728C56.5324 110.761 55.0814 112.018 53.2193 112.335L53.2497 113.721L52.3323 113.753L52.2851 112.404ZM51.9885 100.815C50.8782 100.998 50.092 101.692 50.1297 102.771C50.1711 103.959 50.9095 104.473 51.9307 104.834L52.0951 104.9L51.9885 100.815ZM53.1785 111.166C54.3595 110.945 55.1426 110.161 55.0999 108.938C55.0584 107.75 54.137 107.152 53.0587 106.703L53.1785 111.166ZM63.0892 106.533C64.4086 105.118 65.152 104.228 65.103 102.825C65.0509 101.332 64.097 100.32 62.37 100.381C60.823 100.435 59.6952 101.663 59.2917 102.487L58.4359 101.707C58.8015 100.829 60.0992 99.3073 62.3838 99.2275C64.9023 99.1395 66.3743 100.547 66.4509 102.742C66.5175 104.649 65.3692 105.805 64.2922 106.942L60.7499 110.722L67.226 110.495L67.2668 111.665L59.1178 111.949L58.8693 111.021L63.0892 106.533ZM69.8008 108.802C69.9908 109.084 71.2668 110.552 72.9038 110.495C74.6487 110.434 75.8232 109.511 75.7667 107.892C75.7114 106.309 74.3867 105.508 72.8576 105.562L72.0481 105.59L72.0073 104.421L72.8707 104.391C74.2199 104.344 75.2517 103.461 75.2046 102.112C75.155 100.691 74.0133 99.9741 72.6461 100.022C71.3329 100.068 70.458 100.801 69.7127 101.637L68.9643 100.835C69.6152 99.8755 70.825 98.9327 72.6959 98.8674C74.8186 98.7932 76.4797 99.942 76.5488 101.921C76.6154 103.828 75.256 104.614 74.5613 104.836L74.5632 104.89C75.7959 105.117 77.0654 105.883 77.1357 107.898C77.2124 110.093 75.4265 111.56 72.944 111.647C70.4975 111.732 69.0817 109.872 68.9842 109.659L69.8008 108.802ZM85.7769 96.8256L86.7641 97.2414L79.7991 112.866L78.812 112.45L85.7769 96.8256ZM88.5138 98.4951L89.845 98.4486L90.0316 103.791L90.0855 103.789C90.4319 102.877 91.4533 102.211 92.6585 102.169C95.0691 102.085 95.6962 103.54 95.7666 105.554L95.945 110.663L94.6138 110.71L94.4385 105.691C94.3839 104.126 93.85 103.28 92.285 103.334C90.7739 103.387 90.0617 104.655 90.1126 106.112L90.2785 110.861L88.9473 110.908L88.5138 98.4951ZM97.7267 106.404C97.6369 103.832 99.4976 101.93 101.962 101.844C104.427 101.758 106.433 103.525 106.523 106.097C106.614 108.688 104.733 110.536 102.269 110.622C99.8042 110.709 97.8171 108.995 97.7267 106.404ZM102.228 109.453C104.099 109.388 105.218 107.908 105.155 106.109C105.091 104.292 103.873 102.93 102.002 102.995C100.131 103.06 99.0292 104.504 99.0926 106.321C99.1554 108.12 100.357 109.519 102.228 109.453ZM114.097 108.678C113.75 109.591 112.692 110.222 111.486 110.265C110.461 110.3 109.751 110.073 109.267 109.622C108.616 109.032 108.401 108.049 108.36 106.88L108.182 101.771L109.531 101.724L109.706 106.743C109.761 108.308 110.295 109.153 111.86 109.099C113.371 109.046 114.063 107.725 114.012 106.25L113.848 101.573L115.162 101.527L115.457 109.982L114.162 110.027L114.097 108.678ZM117.637 101.459L118.968 101.412L119.018 102.851C119.378 101.812 120.168 101.208 121.103 101.175C121.661 101.156 122.007 101.288 122.007 101.288L121.962 102.55L121.908 102.552C121.615 102.436 121.236 102.413 120.984 102.422C120.211 102.449 119.726 103.007 119.589 103.209C119.264 103.707 119.065 104.2 119.11 105.478L119.263 109.849L117.931 109.895L117.637 101.459Z" fill="#4D4D4F"/>
<path d="M231.957 38.4238C231.636 39.7342 231.156 41.0472 230.375 42.2825L231.957 38.4238ZM231.957 38.4238C232.036 38.662 232.116 38.899 232.198 39.1339L231.957 38.4238ZM237.161 45.3672C234.844 43.8388 233.125 41.768 232.199 39.1341L237.161 45.3672ZM237.161 45.3672C238.514 46.2603 239.98 46.8439 241.511 47.2007C241.353 47.2495 241.196 47.2988 241.039 47.3489L237.161 45.3672ZM235.334 51.1617C236.856 49.4054 238.747 48.0805 241.039 47.349L235.334 51.1617ZM235.334 51.1617C233.936 52.7748 233.063 54.6091 232.584 56.5881C232.036 54.7818 231.122 53.157 229.827 51.7424L235.334 51.1617ZM223.03 47.8368C223.103 47.8141 223.177 47.7912 223.25 47.7682L223.25 47.7682C226.315 46.8088 228.697 44.9339 230.375 42.2827L223.03 47.8368ZM223.03 47.8368C223.711 47.9948 224.429 48.1927 225.122 48.4796L225.122 48.4796C226.925 49.2253 228.507 50.2996 229.827 51.7422L223.03 47.8368ZM232.481 57.0466C232.302 57.9029 232.113 58.7528 231.919 59.6069C231.669 58.7691 231.419 57.9313 231.17 57.0932C230.688 55.4692 229.878 54.0192 228.721 52.7551C227.558 51.4848 226.162 50.5331 224.549 49.8657C223.633 49.4867 222.668 49.2861 221.703 49.0853C221.566 49.0568 221.429 49.0283 221.292 48.9992L232.481 57.0466ZM233.469 59.5538C233.224 58.7357 232.98 57.918 232.737 57.1L233.949 57.3534L233.469 59.5538Z" stroke="#1DBF9E" stroke-width="3"/>
<path d="M254.012 35.7778C252.489 36.5965 251.354 37.7925 250.647 39.3269C249.819 37.8196 248.597 36.7135 247.051 36.0171C248.567 35.2008 249.7 34.0059 250.411 32.4648C251.238 33.9774 252.463 35.0813 254.012 35.7778ZM250.098 40.9139L249.778 41.0319L250.098 40.9139Z" stroke="#1DBF9E" stroke-width="3"/>
<path d="M238.519 27.1345L238.518 27.1279L238.521 27.1273C238.52 27.1297 238.52 27.1321 238.519 27.1345ZM238.519 27.1345L238.506 27.1317L238.487 27.1377M238.519 27.1345L238.516 27.1347C238.507 27.1355 238.496 27.1364 238.487 27.1377M238.487 27.1377L238.485 27.1272L238.484 27.1268C238.485 27.1304 238.486 27.134 238.487 27.1377Z" stroke="#1DBF9E" stroke-width="3"/>
<path d="M220.703 33.7983C221.302 33.3883 221.766 32.8856 222.12 32.3319C222.306 32.5824 222.512 32.8175 222.74 33.0355C223.004 33.2888 223.29 33.5114 223.594 33.7049C223.039 34.1151 222.575 34.6138 222.207 35.1941C222.02 34.9377 221.803 34.687 221.549 34.4484L221.549 34.4483C221.276 34.1909 220.992 33.9774 220.703 33.7983Z" stroke="#1DBF9E" stroke-width="3"/>
</g>
<defs>
<filter id="filter0_d_1_1869" x="0.175781" y="0.487427" width="298.203" height="255.638" filterUnits="userSpaceOnUse" color-interpolation-filters="sRGB">
<feFlood flood-opacity="0" result="BackgroundImageFix"/>
<feColorMatrix in="SourceAlpha" type="matrix" values="0 0 0 0 0 0 0 0 0 0 0 0 0 0 0 0 0 0 127 0" result="hardAlpha"/>
<feOffset dy="10"/>
<feGaussianBlur stdDeviation="10"/>
<feComposite in2="hardAlpha" operator="out"/>
<feColorMatrix type="matrix" values="0 0 0 0 0.09 0 0 0 0 0.278941 0 0 0 0 0.439412 0 0 0 0.25 0"/>
<feBlend mode="normal" in2="BackgroundImageFix" result="effect1_dropShadow_1_1869"/>
<feBlend mode="normal" in="SourceGraphic" in2="effect1_dropShadow_1_1869" result="shape"/>
</filter>
<linearGradient id="paint0_linear_1_1869" x1="132.148" y1="18.7137" x2="124.931" y2="156.428" gradientUnits="userSpaceOnUse">
<stop stop-color="#D5F6EE"/>
<stop offset="0.28" stop-color="#EBFBF7"/>
<stop offset="1" stop-color="white"/>
</linearGradient>
</defs>
</svg>
